PS G:\video_> ffmpeg -i V00301-114924.mp4  -vcodec h264_nvenc -b 5800k -f mp4 output.mp4
ffmpeg version 4.2.1 Copyright (c) 2000-2019 the FFmpeg developers
  built with gcc 9.1.1 (GCC) 20190807
  configuration: --enable-gpl --enable-version3 --enable-sdl2 --enable-fontconfig --enable-gnutls --enable-iconv --enable-libass --enable-libdav1d --enable-libbluray --enable-libfreetype --enable-libmp3lame --enable-libopencore-amrnb --enable-libopencore-amrwb --enable-libopenjpeg --enable-libopus --enable-libshine --enable-libsnappy --enable-libsoxr --enable-libtheora --enable-libtwolame --enable-libvpx --enable-libwavpack --enable-libwebp --enable-libx264 --enable-libx265 --enable-libxml2 --enable-libzimg --enable-lzma --enable-zlib --enable-gmp --enable-libvidstab --enable-libvorbis --enable-libvo-amrwbenc --enable-libmysofa --enable-libspeex --enable-libxvid --enable-libaom --enable-libmfx --enable-amf --enable-ffnvcodec --enable-cuvid --enable-d3d11va --enable-nvenc --enable-nvdec --enable-dxva2 --enable-avisynth --enable-libopenmpt
  libavutil      56. 31.100 / 56. 31.100
  libavcodec     58. 54.100 / 58. 54.100
  libavformat    58. 29.100 / 58. 29.100
  libavdevice    58.  8.100 / 58.  8.100
  libavfilter     7. 57.100 /  7. 57.100
  libswscale      5.  5.100 /  5.  5.100
  libswresample   3.  5.100 /  3.  5.100
  libpostproc    55.  5.100 / 55.  5.100
Input #0, mov,mp4,m4a,3gp,3g2,mj2, from 'V00301-114924.mp4':
  Metadata:
    major_brand     : mp42
    minor_version   : 0
    compatible_brands: isommp42
    creation_time   : 2020-03-01T04:16:30.000000Z
    com.android.version: 7.1.2
  Duration: 00:27:04.10, start: 0.000000, bitrate: 20102 kb/s
    Stream #0:0(eng): Video: h264 (Baseline) (avc1 / 0x31637661), yuvj420p(pc, smpte170m), 1920x1080, 19998 kb/s, SAR 1:1 DAR 16:9, 29.97 fps, 30 tbr, 90k tbn, 180k tbc (default)
    Metadata:
      creation_time   : 2020-03-01T04:16:30.000000Z
      handler_name    : VideoHandle
    Stream #0:1(eng): Audio: aac (LC) (mp4a / 0x6134706D), 48000 Hz, stereo, fltp, 96 kb/s (default)
    Metadata:
      creation_time   : 2020-03-01T04:16:30.000000Z
      handler_name    : SoundHandle
Please use -b:a or -b:v, -b is ambiguous
File 'output.mp4' already exists. Overwrite ? [y/N] y
Stream mapping:
  Stream #0:0 -> #0:0 (h264 (native) -> h264 (h264_nvenc))
  Stream #0:1 -> #0:1 (aac (native) -> aac (native))
Press [q] to stop, [?] for help
[swscaler @ 0000022f9a91f000] deprecated pixel format used, make sure you did set range correctly
[h264_nvenc @ 0000022f96dbb400] Cannot load nvEncodeAPI64.dll
[h264_nvenc @ 0000022f96dbb400] The minimum required Nvidia driver for nvenc is 418.81 or newer
Error initializing output stream 0:0 -- Error while opening encoder for output stream #0:0 - maybe incorrect parameters such as bit_rate, rate, width or height
[aac @ 0000022f96dbc8c0] Qavg: 3439.046
[aac @ 0000022f96dbc8c0] 2 frames left in the queue on closing
Conversion failed!
PS G:\video_> ffmpeg -i V00301-114924.mp4 -vcodec h264 -b 5800k -f mp4 output.mp4
ffmpeg version 4.2.1 Copyright (c) 2000-2019 the FFmpeg developers
  built with gcc 9.1.1 (GCC) 20190807
  configuration: --enable-gpl --enable-version3 --enable-sdl2 --enable-fontconfig --enable-gnutls --enable-iconv --enable-libass --enable-libdav1d --enable-libbluray --enable-libfreetype --enable-libmp3lame --enable-libopencore-amrnb --enable-libopencore-amrwb --enable-libopenjpeg --enable-libopus --enable-libshine --enable-libsnappy --enable-libsoxr --enable-libtheora --enable-libtwolame --enable-libvpx --enable-libwavpack --enable-libwebp --enable-libx264 --enable-libx265 --enable-libxml2 --enable-libzimg --enable-lzma --enable-zlib --enable-gmp --enable-libvidstab --enable-libvorbis --enable-libvo-amrwbenc --enable-libmysofa --enable-libspeex --enable-libxvid --enable-libaom --enable-libmfx --enable-amf --enable-ffnvcodec --enable-cuvid --enable-d3d11va --enable-nvenc --enable-nvdec --enable-dxva2 --enable-avisynth --enable-libopenmpt
  libavutil      56. 31.100 / 56. 31.100
  libavcodec     58. 54.100 / 58. 54.100
  libavformat    58. 29.100 / 58. 29.100
  libavdevice    58.  8.100 / 58.  8.100
  libavfilter     7. 57.100 /  7. 57.100
  libswscale      5.  5.100 /  5.  5.100
  libswresample   3.  5.100 /  3.  5.100
  libpostproc    55.  5.100 / 55.  5.100
Input #0, mov,mp4,m4a,3gp,3g2,mj2, from 'V00301-114924.mp4':
  Metadata:
    major_brand     : mp42
    minor_version   : 0
    compatible_brands: isommp42
    creation_time   : 2020-03-01T04:16:30.000000Z
    com.android.version: 7.1.2
  Duration: 00:27:04.10, start: 0.000000, bitrate: 20102 kb/s
    Stream #0:0(eng): Video: h264 (Baseline) (avc1 / 0x31637661), yuvj420p(pc, smpte170m), 1920x1080, 19998 kb/s, SAR 1:1 DAR 16:9, 29.97 fps, 30 tbr, 90k tbn, 180k tbc (default)
    Metadata:
      creation_time   : 2020-03-01T04:16:30.000000Z
      handler_name    : VideoHandle
    Stream #0:1(eng): Audio: aac (LC) (mp4a / 0x6134706D), 48000 Hz, stereo, fltp, 96 kb/s (default)
    Metadata:
      creation_time   : 2020-03-01T04:16:30.000000Z
      handler_name    : SoundHandle
Please use -b:a or -b:v, -b is ambiguous
File 'output.mp4' already exists. Overwrite ? [y/N] y
Stream mapping:
  Stream #0:0 -> #0:0 (h264 (native) -> h264 (libx264))
  Stream #0:1 -> #0:1 (aac (native) -> aac (native))
Press [q] to stop, [?] for help
[libx264 @ 000001ad660cb000] using SAR=1/1
[libx264 @ 000001ad660cb000] using cpu capabilities: MMX2 SSE2Fast SSSE3 SSE4.2 AVX
[libx264 @ 000001ad660cb000] profile High, level 4.0, 4:2:0, 8-bit
[libx264 @ 000001ad660cb000] 264 - core 158 r2984 3759fcb - H.264/MPEG-4 AVC codec - Copyleft 2003-2019 - http://www.videolan.org/x264.html - options: cabac=1 ref=3 deblock=1:0:0 analyse=0x3:0x113 me=hex subme=7 psy=1 psy_rd=1.00:0.00 mixed_ref=1 me_range=16 chroma_me=1 trellis=1 8x8dct=1 cqm=0 deadzone=21,11 fast_pskip=1 chroma_qp_offset=-2 threads=6 lookahead_threads=1 sliced_threads=0 nr=0 decimate=1 interlaced=0 bluray_compat=0 constrained_intra=0 bframes=3 b_pyramid=2 b_adapt=1 b_bias=0 direct=1 weightb=1 open_gop=0 weightp=2 keyint=250 keyint_min=25 scenecut=40 intra_refresh=0 rc_lookahead=40 rc=abr mbtree=1 bitrate=5800 ratetol=1.0 qcomp=0.60 qpmin=0 qpmax=69 qpstep=4 ip_ratio=1.40 aq=1:1.00
Output #0, mp4, to 'output.mp4':
  Metadata:
    major_brand     : mp42
    minor_version   : 0
    compatible_brands: isommp42
    com.android.version: 7.1.2
    encoder         : Lavf58.29.100
    Stream #0:0(eng): Video: h264 (libx264) (avc1 / 0x31637661), yuvj420p(pc), 1920x1080 [SAR 1:1 DAR 16:9], q=-1--1, 5800 kb/s, 30 fps, 15360 tbn, 30 tbc (default)
    Metadata:
      creation_time   : 2020-03-01T04:16:30.000000Z
      handler_name    : VideoHandle
      encoder         : Lavc58.54.100 libx264
    Side data:
      cpb: bitrate max/min/avg: 0/0/5800000 buffer size: 0 vbv_delay: -1
    Stream #0:1(eng): Audio: aac (LC) (mp4a / 0x6134706D), 48000 Hz, stereo, fltp, 128 kb/s (default)
    Metadata:
      creation_time   : 2020-03-01T04:16:30.000000Z
      handler_name    : SoundHandle
      encoder         : Lavc58.54.100 aac
frame=48723 fps=4.5 q=-1.0 Lsize= 1184991kB time=00:27:04.09 bitrate=5977.1kbits/s dup=71 drop=14 speed=0.151x
video:1157713kB audio:25501kB subtitle:0kB other streams:0kB global headers:0kB muxing overhead: 0.150184%
[libx264 @ 000001ad660cb000] frame I:214   Avg QP:21.98  size:151537
[libx264 @ 000001ad660cb000] frame P:12338 Avg QP:25.18  size: 52851
[libx264 @ 000001ad660cb000] frame B:36171 Avg QP:28.28  size: 13851
[libx264 @ 000001ad660cb000] consecutive B-frames:  0.9%  0.2%  0.3% 98.6%
[libx264 @ 000001ad660cb000] mb I  I16..4: 12.0% 59.5% 28.5%
[libx264 @ 000001ad660cb000] mb P  I16..4:  3.3%  6.7%  1.3%  P16..4: 46.6% 14.6%  9.0%  0.0%  0.0%    skip:18.5%
[libx264 @ 000001ad660cb000] mb B  I16..4:  0.5%  0.6%  0.1%  B16..8: 39.1%  3.0%  0.5%  direct: 3.8%  skip:52.4%  L0:48.6% L1:47.4% BI: 4.0%
[libx264 @ 000001ad660cb000] final ratefactor: 23.83
[libx264 @ 000001ad660cb000] 8x8 transform intra:57.3% inter:55.7%
[libx264 @ 000001ad660cb000] coded y,uvDC,uvAC intra: 52.0% 47.0% 6.3% inter: 16.9% 11.2% 0.1%
[libx264 @ 000001ad660cb000] i16 v,h,dc,p: 19% 15% 20% 46%
[libx264 @ 000001ad660cb000] i8 v,h,dc,ddl,ddr,vr,hd,vl,hu: 22% 15% 23%  5%  8%  7%  9%  6%  5%
[libx264 @ 000001ad660cb000] i4 v,h,dc,ddl,ddr,vr,hd,vl,hu: 25% 16% 20%  5%  8%  7%  8%  5%  5%
[libx264 @ 000001ad660cb000] i8c dc,h,v,p: 61% 16% 18%  5%
[libx264 @ 000001ad660cb000] Weighted P-Frames: Y:5.8% UV:1.3%
[libx264 @ 000001ad660cb000] ref P L0: 45.4% 12.2% 31.1% 10.9%  0.5%
[libx264 @ 000001ad660cb000] ref B L0: 83.6% 12.8%  3.6%
[libx264 @ 000001ad660cb000] ref B L1: 95.0%  5.0%
[libx264 @ 000001ad660cb000] kb/s:5839.53
[aac @ 000001ad660cc9c0] Qavg: 167.418
PS G:\video_>